<?xml version="1.0" encoding="UTF-8"?>
<svg width="32px" height="32px" viewBox="0 0 32 32" version="1.1" xmlns="http://www.w3.org/2000/svg" xmlns:xlink="http://www.w3.org/1999/xlink">
    <title>•• ASSET / Multiplatform /SVG /  ic_signup_screen_header_sim_reg_error</title>
    <g id="••-ASSET-/-Multiplatform-/-ic_signup_screen_header_sim_reg_error" stroke="none" stroke-width="1" fill="none" fill-rule="evenodd">
        <g id="•-ICON-/-SIM_SIM-Card_SIM-Verified-/-W:Light" transform="translate(0.25, 4.25)">
            <path d="M28.75,0 C30.2687831,0 31.5,1.23121694 31.5,2.75 L31.5,16.75 C31.5,16.9489124 31.4209824,17.1396778 31.2803301,17.2803301 L28.713,19.847 L27.936,18.501 L30,16.438 L30,2.75 C30,2.10279131 29.5081253,1.5704661 28.8778052,1.50645361 L28.75,1.5 L2.75,1.5 C2.05964406,1.5 1.5,2.05964406 1.5,2.75 L1.5,20.75 C1.5,21.4403559 2.05964406,22 2.75,22 L17.542,22 L16.676,23.5 L2.75,23.5 C1.23121694,23.5 0,22.2687831 0,20.75 L0,2.75 C0,1.23121694 1.23121694,0 2.75,0 L28.75,0 Z M23.75,4.25 C24.5784271,4.25 25.25,4.92157288 25.25,5.75 L25.25,13.848 L24.25,12.116 L24.25,9.75 L18.25,9.75 L18.25,13.25 L22.594,13.25 L22.017,14.25 L18.25,14.25 L18.25,18.25 L19.707,18.25 L19.13,19.25 L5.75,19.25 C4.92157288,19.25 4.25,18.5784271 4.25,17.75 L4.25,5.75 C4.25,4.92157288 4.92157288,4.25 5.75,4.25 L23.75,4.25 Z M10.75,14.25 L5.25,14.25 L5.25,17.75 C5.25,17.9954599 5.42687516,18.1996084 5.66012437,18.2419443 L5.75,18.25 L10.75,18.25 L10.75,14.25 Z M17.25,5.25 L11.75,5.25 L11.75,18.25 L17.25,18.25 L17.25,5.25 Z M10.75,9.75 L5.25,9.75 L5.25,13.25 L10.75,13.25 L10.75,9.75 Z M23.75,5.25 L18.25,5.25 L18.25,8.75 L24.25,8.75 L24.25,5.75 C24.25,5.50454011 24.0731248,5.30039163 23.8398756,5.25805567 L23.75,5.25 Z M10.75,5.25 L5.75,5.25 C5.47385763,5.25 5.25,5.47385763 5.25,5.75 L5.25,8.75 L10.75,8.75 L10.75,5.25 Z" id="Combined-Shape" fill="#2274E5"></path>
            <g id="•-ICON-/-Checkmark.InCircularStar.18pts-/-Filled" transform="translate(15.75, 11.75)">
                <path d="M8.43375865,0.25 L15.9337586,13.2403811 C16.1262087,13.5737144 15.8856461,13.9903811 15.5007459,13.9903811 L0.500745946,13.9903811 C0.115845767,13.9903811 -0.124716845,13.5737144 0.0677332443,13.2403811 L7.56773324,0.25 C7.76018333,-0.0833333333 8.24130856,-0.0833333333 8.43375865,0.25 Z M7.99731445,10.5874023 C7.56225586,10.5874023 7.21850586,10.9204102 7.21850586,11.3447266 C7.21850586,11.769043 7.56225586,12.1074219 7.99731445,12.1074219 C8.43774414,12.1074219 8.78149414,11.769043 8.78149414,11.3447266 C8.78149414,10.9204102 8.43774414,10.5874023 7.99731445,10.5874023 Z M8.00268555,4.14208984 C7.59985352,4.14208984 7.32592773,4.39990234 7.32592773,4.81884766 C7.32592773,4.84570313 7.33129883,4.88330078 7.33129883,4.92089844 L7.40112305,8.89013672 C7.41186523,9.28222656 7.6159668,9.51855469 7.99731445,9.51855469 C8.37866211,9.51855469 8.58813477,9.28222656 8.59887695,8.89013672 L8.66870117,4.92089844 C8.66870117,4.88330078 8.67407227,4.84570313 8.67407227,4.81884766 C8.67407227,4.39990234 8.40551758,4.14208984 8.00268555,4.14208984 Z" id="Combined-Shape" fill="#2274E5"></path>
                <path d="M7.99731445,9.51855469 C8.37866211,9.51855469 8.58813477,9.28222656 8.59887695,8.89013672 L8.66870117,4.92089844 C8.66870117,4.88330078 8.67407227,4.84570313 8.67407227,4.81884766 C8.67407227,4.39990234 8.40551758,4.14208984 8.00268555,4.14208984 C7.59985352,4.14208984 7.32592773,4.39990234 7.32592773,4.81884766 C7.32592773,4.84570313 7.33129883,4.88330078 7.33129883,4.92089844 L7.40112305,8.89013672 C7.41186523,9.28222656 7.6159668,9.51855469 7.99731445,9.51855469 Z M7.99731445,12.1074219 C8.43774414,12.1074219 8.78149414,11.769043 8.78149414,11.3447266 C8.78149414,10.9204102 8.43774414,10.5874023 7.99731445,10.5874023 C7.56225586,10.5874023 7.21850586,10.9204102 7.21850586,11.3447266 C7.21850586,11.769043 7.56225586,12.1074219 7.99731445,12.1074219 Z" id="!" fill-opacity="0" fill="#FFFFFF"></path>
            </g>
        </g>
    </g>
</svg>