<svg width="44" height="44" viewBox="0 0 44 44" fill="none" xmlns="http://www.w3.org/2000/svg">
<g id="logo/globe/globelife">
<path id="Exclude" fill-rule="evenodd" clip-rule="evenodd" d="M38.5686 12.5536C39.2378 11.9784 38.584 10.4833 37.3261 9.02915C36.0663 7.57425 34.6837 6.71277 34.0166 7.28756C33.3515 7.86421 33.9567 9.39423 35.2144 10.8504C36.471 12.3036 37.9047 13.1301 38.5686 12.5536ZM21.9805 41.5269C20.7947 41.5269 19.7892 40.6703 19.7892 39.966C19.7892 39.0984 20.7947 38.2325 21.9805 38.2325C23.1668 38.2325 24.2213 39.0062 24.2213 39.8751C24.2213 40.837 23.1668 41.5269 21.9805 41.5269ZM21.9805 37.2745C20.0455 37.2745 18.4756 38.6153 18.4756 40.0326C18.4756 41.1817 20.0455 42.2155 21.9805 42.2155C23.9161 42.2155 25.4862 41.2572 25.4862 39.9563C25.4862 38.5377 23.9161 37.2745 21.9805 37.2745ZM22.0001 0C9.84977 0 0 9.84977 0 22.0001C0 34.1504 9.84977 44 22.0001 44C34.1502 44 44 34.1504 44 22.0001C44 9.84977 34.1502 0 22.0001 0ZM4.5592 30.9223C4.50922 30.9186 4.46235 30.9235 4.41376 30.9217C4.48097 31.3437 4.56014 31.7633 4.6528 32.1797C5.48138 32.3347 6.48489 33.0408 7.27823 34.1168C8.03462 35.1479 8.4098 36.2587 8.35485 37.0851C8.74414 37.2422 9.13872 37.3879 9.53733 37.5231C9.74362 36.3316 9.31567 34.8073 8.27149 33.3858C7.20977 31.9466 5.82302 31.0247 4.5592 30.9223ZM8.8268 10.8229C7.57012 12.276 6.13633 13.1026 5.47245 12.5263C4.80329 11.951 5.45708 10.4558 6.71485 9.00179C7.97478 7.54674 9.35766 6.68525 10.0246 7.26004C10.6896 7.83685 10.0846 9.36672 8.8268 10.8229ZM10.7495 10.0325C11.6688 8.44454 11.8741 6.94385 11.1441 6.31132C10.1811 5.47964 7.9574 6.4726 6.17297 8.53333C4.39071 10.5947 3.72868 12.9409 4.69556 13.7719C5.6553 14.6064 7.88212 13.6092 9.66267 11.5501C9.72864 11.4735 9.78979 11.3961 9.85281 11.3191L9.86182 11.3236C12.1222 12.1955 13.1266 12.7965 13.5671 13.0048L14.4059 11.7155C13.8059 11.4321 12.4607 10.6707 10.7495 10.0325ZM4.59298 28.6045C4.45079 28.5924 4.30954 28.5885 4.17015 28.5872C4.18956 29.0008 4.222 29.4136 4.26577 29.8253C4.34105 29.8272 4.41602 29.8278 4.49332 29.8345C6.13138 29.967 7.80902 31.0472 9.09752 32.7955C10.3401 34.4851 10.8321 36.3311 10.5808 37.8523C10.9765 37.967 11.374 38.0718 11.7757 38.1661C12.1202 36.2974 11.5673 34.0734 10.0908 32.0636C8.59103 30.0269 6.58603 28.767 4.59298 28.6045ZM5.31659 33.5325C5.05442 33.7176 5.25481 34.4555 5.76409 35.1846C6.27353 35.9143 6.89985 36.3566 7.16217 36.1735C7.4245 35.9903 7.22317 35.2507 6.71374 34.5218C6.2043 33.7921 5.57798 33.3495 5.31659 33.5325ZM39.3451 13.7993C40.3109 12.9681 39.6498 10.6224 37.8674 8.56061C36.083 6.49988 33.8596 5.50723 32.8975 6.33907C31.9348 7.17261 32.5947 9.51537 34.378 11.5775C36.1592 13.6367 38.3851 14.6334 39.3451 13.7993ZM29.2896 3.01953L29.2347 2.49287C26.9816 1.65964 24.5453 1.20298 22.0014 1.20298C19.4878 1.20298 17.0793 1.648 14.8473 2.46322L14.8017 2.97732C17.7206 2.99253 19.6516 3.3261 22.0735 4.2714C23.9609 3.42125 26.1275 3.05881 29.2896 3.01953ZM8.99023 28.5207C8.17873 24.1509 8.0516 21.175 8.74622 16.7203C6.12498 16.7577 4.04361 16.7949 1.75595 17.0512C1.36029 18.6554 1.14562 20.3318 1.14562 22.0576C1.14562 23.3242 1.26592 24.5619 1.48121 25.7665C3.1396 25.8577 4.58953 25.8813 6.44707 25.9162C7.15271 26.7293 7.92044 27.5549 8.99023 28.5207ZM29.7358 7.34834L29.3851 3.96031C26.2178 3.99508 24.0685 4.31655 22.2289 5.17167L22.0938 5.23469L21.9565 5.18005C19.5112 4.21022 17.6577 3.92803 14.7159 3.92337L14.4099 7.34834C20.1609 5.88398 23.75 5.91378 29.7358 7.34834ZM33.3977 12.9322C33.8128 12.5471 33.7355 11.7906 33.2249 11.2442C32.7155 10.6975 31.9673 10.5668 31.5535 10.9527C31.1398 11.3375 31.2161 12.0931 31.7274 12.6407C32.2356 13.1873 32.984 13.3181 33.3977 12.9322ZM30.055 12.6302C29.8071 12.8614 29.8242 13.285 30.0955 13.5772C30.3671 13.8677 30.7879 13.9162 31.0363 13.6845C31.2852 13.4532 31.2669 13.0296 30.9955 12.7386C30.7241 12.4472 30.303 12.3986 30.055 12.6302ZM25.562 34.4781C22.9987 34.734 21.4432 34.7331 18.5536 34.4781L17.5966 36.0207C16.7322 35.876 15.8224 35.6959 14.8371 35.4749C14.9287 37.6617 15.0375 39.5613 15.3059 41.8081C17.4086 42.5209 19.6587 42.9131 22.0014 42.9131C24.3451 42.9131 26.5951 42.5209 28.6987 41.8081C28.9561 39.8196 29.1158 37.7463 29.1636 35.3976C28.2462 35.6404 27.3841 35.8411 26.5486 35.9988L25.562 34.4781ZM28.0387 19.2382C27.3746 20.1813 26.7382 20.4373 26.5265 20.3604C26.0517 20.1886 18.4505 12.7411 18.1495 12.7411C17.8463 12.7411 17.5649 13.4164 17.5649 14.2802C17.5649 15.1431 20.0506 17.6844 20.8286 18.6778C21.6057 19.6703 21.4337 20.4034 21.4337 20.4034C21.4337 20.4034 15.4753 15.0936 15.087 15.0936C14.6977 15.0936 14.5684 16.2643 14.7829 16.9459C14.9772 17.5633 19.3421 21.4754 19.5355 21.7185C20.1025 22.4286 19.7855 22.9301 19.7855 22.9301C19.7855 22.9301 14.5592 17.9232 14.2137 17.9232C13.8678 17.9232 13.6401 18.4053 13.7073 19.3447C13.7856 20.436 16.6323 22.8067 17.4092 23.6707C18.187 24.533 18.3244 24.8082 18.1517 25.4988C18.1517 25.4988 15.087 22.2174 14.7841 22.2174C14.4808 22.2174 14.055 23.3084 14.9091 24.5384C15.1733 24.9201 15.5832 25.5107 16.5207 26.8018C18.0306 28.8837 19.9158 31.3287 23.8585 31.2266C28.5267 31.1051 30.0316 27.2821 30.4778 22.412C30.667 20.3462 30.9762 18.3075 31.1631 16.7194C29.208 16.171 28.8764 18.0486 28.0387 19.2382ZM39.1208 25.1087C39.2662 22.7295 39.2347 21.3702 39.1349 18.9262C40.341 20.0006 40.9805 20.8061 41.8853 22.0449C41.0213 23.2836 40.2536 24.0693 39.1208 25.1087ZM39.3943 15.4905C37.4767 15.4905 35.9232 18.4261 35.9232 22.048C35.9232 25.6701 37.4767 28.6063 39.3943 28.6063C41.3131 28.6063 42.8666 25.6701 42.8666 22.048C42.8666 18.4261 41.3131 15.4905 39.3943 15.4905ZM34.8876 35.7654C34.9886 34.9753 35.0999 33.9182 35.1502 33.1236C35.2606 33.0365 35.4906 32.8559 35.7265 32.52C37.3317 32.7095 37.3317 32.7095 38.116 32.7929C38.0972 32.9077 38.0865 32.972 38.0909 33.0681C38.0913 33.0795 38.0948 33.0896 38.096 33.1005C37.3731 34.0852 36.5595 34.9978 35.6688 35.8284L35.6663 35.8305C35.5092 35.7542 35.2939 35.6868 34.8876 35.7654ZM39.2783 31.0711C38.9606 31.2178 38.7219 31.5314 38.5935 31.6999C37.1491 31.5346 37.031 31.521 36.1765 31.4134C36.217 30.9532 36.1761 29.8963 34.9256 30.0189C33.1733 30.4402 32.4565 32.6909 33.5208 33.3683C33.7617 33.5216 34.0053 33.5235 34.122 33.5246C34.1031 34.3108 34.0491 35.3594 33.9576 36.1401C32.0422 37.3036 31.3542 39.3577 32.4361 39.6653C33.5044 39.9691 36.0991 38.0212 35.998 36.308C35.9976 36.301 35.996 36.2956 35.9954 36.2886C36.8857 35.4648 37.7016 34.5608 38.4307 33.5874C38.9919 33.6104 39.6023 32.7477 39.8117 32.1352C40.0859 31.3345 39.8266 30.817 39.2783 31.0711Z" fill="#1A458B"/>
</g>
</svg>
