<?xml version="1.0" encoding="UTF-8"?>
<svg width="32px" height="32px" viewBox="0 0 32 32" version="1.1" xmlns="http://www.w3.org/2000/svg" xmlns:xlink="http://www.w3.org/1999/xlink">
    <title>•• ASSET / Multiplatform /SVG /  ic_signup_screen_scan_tips_no_fingers</title>
    <g id="••-ASSET-/-Multiplatform-/-ic_signup_screen_scan_tips_no_fingers" stroke="none" stroke-width="1" fill="none" fill-rule="evenodd">
        <path d="M17.4193548,3 C18.0607178,3 18.5806452,3.51992739 18.5806452,4.16129032 L18.5804722,5.84615221 C18.9610237,5.87962509 19.3429502,6.0155569 19.4523901,6.03777165 C22.227311,6.60104108 26.7214865,8.93418106 27.2964262,9.80292586 C27.908606,10.7279411 29.0927722,15.6900391 29.3850985,19.8169885 L29.3933382,19.936633 C29.9821278,20.3428161 30.8510151,20.8656263 32,21.5050637 L27.7999247,29.5806452 C27.1934046,29.1954856 26.5667881,28.8650276 25.9200754,28.5892712 C21.4107293,27.3200937 20.2173189,26.8944004 18.4233396,25.5824972 C17.4022769,24.5242559 16.487054,23.488159 15.6207136,21.1170593 C14.9525887,19.2884585 13.6638069,17.9288304 12.9202358,16.9350503 L12.43877,16.9332326 C12.4740486,16.9889556 12.5136734,17.0506831 12.5584865,17.1201757 C12.7752696,17.4563464 13.4063118,18.3255531 14.4516129,19.7277958 C13.3988777,20.3637936 12.5698088,20.4604928 11.9644062,20.0178934 C11.3590036,19.5752941 11.0991317,18.9389216 11.1847904,18.108776 C10.3236805,18.3397045 9.67464312,18.3397045 9.23767842,18.108776 C8.76345969,17.8581595 8.46265235,17.5150426 8.33256244,16.9362002 L1.16129032,16.9354839 C0.519927387,16.9354839 0,16.4155565 0,15.7741935 L0,4.16129032 C0,3.51992739 0.519927387,3 1.16129032,3 L17.4193548,3 Z M18.5801867,13.6398969 L18.5809937,15.6723758 C18.6411013,15.7738357 18.6976776,15.8687724 18.7540663,15.9609131 L18.8770223,16.1572913 C19.106503,16.5144454 19.3709661,16.8698953 19.8790485,17.4562008 C20.0518774,17.655638 20.1607049,16.8846453 20.0505279,16.5881407 C19.5600501,15.2681832 19.0701606,14.4492036 18.5801867,13.6398969 Z M17.4193548,3.87096774 L1.16129032,3.87096774 C1.01876523,3.87096774 0.900227398,3.97366945 0.875645227,4.10910447 L0.870967742,4.16129032 L0.870967742,15.7741935 C0.870967742,15.9167186 0.973669448,16.0352565 1.10910447,16.0598386 L1.16129032,16.0645161 L12.402,16.064 L12.3750249,15.9903879 C11.8466272,14.6197571 10.7838351,12.7391635 11.7388636,11.4898523 C11.6605113,11.3923784 11.6129032,11.2662651 11.6129032,11.1290323 C11.6129032,10.8083508 11.8728669,10.5483871 12.1935484,10.5483871 C12.4062108,10.5483871 12.5921709,10.6627135 12.6933201,10.8332578 C12.9454087,10.7571284 13.2202412,10.7274038 13.5052909,10.7391761 C13.6112598,10.6220607 13.7647681,10.5483871 13.9354839,10.5483871 C14.1850745,10.5483871 14.397884,10.7058657 14.479972,10.9268824 C14.6888883,10.9963002 14.8978014,11.0851297 15.1014543,11.1908136 L15.0967742,11.1290323 C15.0967742,10.8083508 15.3567379,10.5483871 15.6774194,10.5483871 C15.9981008,10.5483871 16.2580645,10.8083508 16.2580645,11.1290323 C16.2580645,11.387379 16.0893428,11.6063187 15.8560776,11.6816731 C16.4118914,12.1257795 16.8704502,12.7048528 17.1173171,13.3712989 C17.348142,13.7089591 17.5429913,14.0017404 17.7102579,14.2589982 L17.7096774,4.16129032 C17.7096774,4.01876523 17.6069757,3.9002274 17.4715407,3.87564523 L17.4193548,3.87096774 Z M6.53397722,9.47566745 L6.56999285,9.4780922 C7.05691274,9.54349008 7.56221175,9.65287356 8.08592847,9.80607709 C8.47317682,9.91935548 8.76442803,10.2368192 8.84606273,10.628793 L8.8562866,10.6852821 L9.17855072,12.777835 C9.27007167,13.3721067 8.86251167,13.9280515 8.26823997,14.0195725 C8.23168406,14.0252023 8.19487691,14.0289637 8.15796196,14.0308458 L8.10252662,14.0322581 L2.92973144,14.0322581 C2.32845369,14.0322581 1.84102176,13.5448261 1.84102176,12.9435484 C1.84102176,12.9065615 1.8429066,12.8696107 1.84666529,12.8328394 L1.85370735,12.777835 L2.1759715,10.6852819 C2.24031016,10.2675197 2.54063891,9.92475443 2.94632419,9.80607867 C3.46994337,9.65290352 3.97514946,9.5435324 4.46198344,9.47813005 C4.534095,9.46844242 4.60654167,9.48806808 4.66356177,9.53167841 L4.69071331,9.55545763 L5.51585685,10.380998 L6.34124242,9.55545024 C6.39268163,9.50397825 6.46218235,9.47560667 6.53397722,9.47566745 Z M10.4516129,12.2903226 C10.7722944,12.2903226 11.0322581,12.5502863 11.0322581,12.8709677 C11.0322581,13.1916492 10.7722944,13.4516129 10.4516129,13.4516129 C10.1309314,13.4516129 9.87096774,13.1916492 9.87096774,12.8709677 C9.87096774,12.5502863 10.1309314,12.2903226 10.4516129,12.2903226 Z M10.4516129,10.5483871 C10.7722944,10.5483871 11.0322581,10.8083508 11.0322581,11.1290323 C11.0322581,11.4497137 10.7722944,11.7096774 10.4516129,11.7096774 C10.1309314,11.7096774 9.87096774,11.4497137 9.87096774,11.1290323 C9.87096774,10.8083508 10.1309314,10.5483871 10.4516129,10.5483871 Z M13.9354839,8.80645161 C14.2561653,8.80645161 14.516129,9.06641531 14.516129,9.38709677 C14.516129,9.70777824 14.2561653,9.96774194 13.9354839,9.96774194 C13.6148024,9.96774194 13.3548387,9.70777824 13.3548387,9.38709677 C13.3548387,9.06641531 13.6148024,8.80645161 13.9354839,8.80645161 Z M12.1935484,8.80645161 C12.5142299,8.80645161 12.7741935,9.06641531 12.7741935,9.38709677 C12.7741935,9.70777824 12.5142299,9.96774194 12.1935484,9.96774194 C11.8728669,9.96774194 11.6129032,9.70777824 11.6129032,9.38709677 C11.6129032,9.06641531 11.8728669,8.80645161 12.1935484,8.80645161 Z M10.4516129,8.80645161 C10.7722944,8.80645161 11.0322581,9.06641531 11.0322581,9.38709677 C11.0322581,9.70777824 10.7722944,9.96774194 10.4516129,9.96774194 C10.1309314,9.96774194 9.87096774,9.70777824 9.87096774,9.38709677 C9.87096774,9.06641531 10.1309314,8.80645161 10.4516129,8.80645161 Z M5.51612903,5.59475806 C6.41804566,5.59475806 7.14919355,6.38683494 7.14919355,7.36391129 C7.14919355,8.34098764 6.41804566,9.13306452 5.51612903,9.13306452 C4.6142124,9.13306452 3.88306452,8.34098764 3.88306452,7.36391129 C3.88306452,6.38683494 4.6142124,5.59475806 5.51612903,5.59475806 Z M15.6774194,7.06451613 C15.9981008,7.06451613 16.2580645,7.32447982 16.2580645,7.64516129 C16.2580645,7.96584276 15.9981008,8.22580645 15.6774194,8.22580645 C15.3567379,8.22580645 15.0967742,7.96584276 15.0967742,7.64516129 C15.0967742,7.32447982 15.3567379,7.06451613 15.6774194,7.06451613 Z M13.9354839,7.06451613 C14.2561653,7.06451613 14.516129,7.32447982 14.516129,7.64516129 C14.516129,7.96584276 14.2561653,8.22580645 13.9354839,8.22580645 C13.6148024,8.22580645 13.3548387,7.96584276 13.3548387,7.64516129 C13.3548387,7.32447982 13.6148024,7.06451613 13.9354839,7.06451613 Z M12.1935484,7.06451613 C12.5142299,7.06451613 12.7741935,7.32447982 12.7741935,7.64516129 C12.7741935,7.96584276 12.5142299,8.22580645 12.1935484,8.22580645 C11.8728669,8.22580645 11.6129032,7.96584276 11.6129032,7.64516129 C11.6129032,7.32447982 11.8728669,7.06451613 12.1935484,7.06451613 Z M10.4516129,7.06451613 C10.7722944,7.06451613 11.0322581,7.32447982 11.0322581,7.64516129 C11.0322581,7.96584276 10.7722944,8.22580645 10.4516129,8.22580645 C10.1309314,8.22580645 9.87096774,7.96584276 9.87096774,7.64516129 C9.87096774,7.32447982 10.1309314,7.06451613 10.4516129,7.06451613 Z" id="Combined-Shape" fill="#62768B" fill-rule="nonzero"></path>
    </g>
</svg>