<?xml version="1.0" encoding="UTF-8"?>
<svg width="32px" height="32px" viewBox="0 0 32 32" version="1.1" xmlns="http://www.w3.org/2000/svg" xmlns:xlink="http://www.w3.org/1999/xlink">
    <title>•• ASSET / Multiplatform /SVG /  ic_signup_screen_scan_tips_no_glare_or_shadows</title>
    <defs>
        <radialGradient cx="24.1759993%" cy="31.831764%" fx="24.1759993%" fy="31.831764%" r="140.72307%" gradientTransform="translate(0.2418, 0.3183), scale(0.7333, 1), rotate(40.1093), translate(-0.2418, -0.3183)" id="radialGradient-1">
            <stop stop-color="#FFFFFF" stop-opacity="0.65" offset="0%"></stop>
            <stop stop-color="#000000" stop-opacity="0.47" offset="62.0408705%"></stop>
            <stop stop-color="#000000" stop-opacity="0.92" offset="100%"></stop>
        </radialGradient>
        <radialGradient cx="23.8080797%" cy="30.3700048%" fx="23.8080797%" fy="30.3700048%" r="140.891979%" gradientTransform="translate(0.2381, 0.3037), scale(0.7241, 1), rotate(39.7534), translate(-0.2381, -0.3037)" id="radialGradient-2">
            <stop stop-color="#FFFFFF" stop-opacity="0.9" offset="0%"></stop>
            <stop stop-color="#B1B1B1" stop-opacity="0.5" offset="25.3034297%"></stop>
            <stop stop-color="#000000" stop-opacity="0.25" offset="76.4641608%"></stop>
            <stop stop-color="#000000" stop-opacity="0.5" offset="100%"></stop>
        </radialGradient>
        <radialGradient cx="50%" cy="50%" fx="50%" fy="50%" r="49.8661495%" gradientTransform="translate(0.5, 0.5), scale(0.866, 1), rotate(90), translate(-0.5, -0.5)" id="radialGradient-3">
            <stop stop-color="#FFFFFF" stop-opacity="0.98" offset="0%"></stop>
            <stop stop-color="#FFFFFF" stop-opacity="0.98" offset="21.5188561%"></stop>
            <stop stop-color="#FFFFFF" stop-opacity="0.17" offset="100%"></stop>
        </radialGradient>
    </defs>
    <g id="••-ASSET-/-Multiplatform-/-ic_signup_screen_scan_tips_no_glare_or_shadows" stroke="none" stroke-width="1" fill="none" fill-rule="evenodd">
        <rect id="Rectangle" fill="url(#radialGradient-1)" x="1" y="5" width="30" height="22"></rect>
        <g id="•-ICON-/-ID-Card.Person_ID-Document-/-W:Light" transform="translate(0, 4)" fill="#62768B" fill-rule="nonzero">
            <path d="M30,0 C31.1045695,0 32,0.8954305 32,2 L32,22 C32,23.1045695 31.1045695,24 30,24 L2,24 C0.8954305,24 0,23.1045695 0,22 L0,2 C0,0.8954305 0.8954305,0 2,0 L30,0 Z M30,1.5 L2,1.5 C1.75454011,1.5 1.55039163,1.67687516 1.50805567,1.91012437 L1.5,2 L1.5,22 C1.5,22.2454599 1.67687516,22.4496084 1.91012437,22.4919443 L2,22.5 L30,22.5 C30.2454599,22.5 30.4496084,22.3231248 30.4919443,22.0898756 L30.5,22 L30.5,2 C30.5,1.75454011 30.3231248,1.55039163 30.0898756,1.50805567 L30,1.5 Z M11.2529608,11.1525384 L11.3149877,11.1567143 C12.1535719,11.269344 13.0238091,11.4577267 13.9257657,11.7215772 C14.5926934,11.9166678 15.0942927,12.4634109 15.2348858,13.1384768 L15.2524936,13.2357636 L15.807504,16.8396048 C15.9651234,17.8630727 15.2632145,18.8205332 14.2397466,18.9781526 C14.1767892,18.9878484 14.1133991,18.9943264 14.0498234,18.9975678 L13.9543514,19 L5.04564859,19 C4.01011469,19 3.17064859,18.1605339 3.17064859,17.125 C3.17064859,17.0613004 3.1738947,16.9976629 3.180368,16.9343345 L3.19249599,16.8396048 L3.74750648,13.2357632 C3.85831194,12.516284 4.37554478,11.925966 5.074225,11.7215799 C5.97601359,11.4577783 6.84609074,11.2694169 7.68452703,11.1567795 C7.80871916,11.1400953 7.93348843,11.173895 8.03168972,11.2490017 L8.0784507,11.2899548 L9.49953125,12.7117187 L10.9210286,11.2899421 C11.0096184,11.2012959 11.129314,11.1524337 11.2529608,11.1525384 Z M24,16 C24.5522847,16 25,16.4477153 25,17 C25,17.5522847 24.5522847,18 24,18 C23.4477153,18 23,17.5522847 23,17 C23,16.4477153 23.4477153,16 24,16 Z M21,16 C21.5522847,16 22,16.4477153 22,17 C22,17.5522847 21.5522847,18 21,18 C20.4477153,18 20,17.5522847 20,17 C20,16.4477153 20.4477153,16 21,16 Z M18,16 C18.5522847,16 19,16.4477153 19,17 C19,17.5522847 18.5522847,18 18,18 C17.4477153,18 17,17.5522847 17,17 C17,16.4477153 17.4477153,16 18,16 Z M27,13 C27.5522847,13 28,13.4477153 28,14 C28,14.5522847 27.5522847,15 27,15 C26.4477153,15 26,14.5522847 26,14 C26,13.4477153 26.4477153,13 27,13 Z M24,13 C24.5522847,13 25,13.4477153 25,14 C25,14.5522847 24.5522847,15 24,15 C23.4477153,15 23,14.5522847 23,14 C23,13.4477153 23.4477153,13 24,13 Z M21,13 C21.5522847,13 22,13.4477153 22,14 C22,14.5522847 21.5522847,15 21,15 C20.4477153,15 20,14.5522847 20,14 C20,13.4477153 20.4477153,13 21,13 Z M18,13 C18.5522847,13 19,13.4477153 19,14 C19,14.5522847 18.5522847,15 18,15 C17.4477153,15 17,14.5522847 17,14 C17,13.4477153 17.4477153,13 18,13 Z M24,10 C24.5522847,10 25,10.4477153 25,11 C25,11.5522847 24.5522847,12 24,12 C23.4477153,12 23,11.5522847 23,11 C23,10.4477153 23.4477153,10 24,10 Z M21,10 C21.5522847,10 22,10.4477153 22,11 C22,11.5522847 21.5522847,12 21,12 C20.4477153,12 20,11.5522847 20,11 C20,10.4477153 20.4477153,10 21,10 Z M18,10 C18.5522847,10 19,10.4477153 19,11 C19,11.5522847 18.5522847,12 18,12 C17.4477153,12 17,11.5522847 17,11 C17,10.4477153 17.4477153,10 18,10 Z M9.5,4.46875 C11.0533009,4.46875 12.3125,5.8328824 12.3125,7.515625 C12.3125,9.1983676 11.0533009,10.5625 9.5,10.5625 C7.94669914,10.5625 6.6875,9.1983676 6.6875,7.515625 C6.6875,5.8328824 7.94669914,4.46875 9.5,4.46875 Z M27,7 C27.5522847,7 28,7.44771525 28,8 C28,8.55228475 27.5522847,9 27,9 C26.4477153,9 26,8.55228475 26,8 C26,7.44771525 26.4477153,7 27,7 Z M24,7 C24.5522847,7 25,7.44771525 25,8 C25,8.55228475 24.5522847,9 24,9 C23.4477153,9 23,8.55228475 23,8 C23,7.44771525 23.4477153,7 24,7 Z M21,7 C21.5522847,7 22,7.44771525 22,8 C22,8.55228475 21.5522847,9 21,9 C20.4477153,9 20,8.55228475 20,8 C20,7.44771525 20.4477153,7 21,7 Z M18,7 C18.5522847,7 19,7.44771525 19,8 C19,8.55228475 18.5522847,9 18,9 C17.4477153,9 17,8.55228475 17,8 C17,7.44771525 17.4477153,7 18,7 Z" id="Combined-Shape"></path>
        </g>
        <rect id="Rectangle" fill="url(#radialGradient-2)" x="1.5" y="5.5" width="29" height="21" rx="0.5"></rect>
        <path d="M14,1.60769515 L9.199,10.6556952 L14.1283555,6.85769912 L9.33914977,11.2268415 L15.517541,9.26383885 L9.76,11.6326952 L20,12 L9.762,12.3666952 L15.517541,14.7361611 L9.33914977,12.7731585 L14.1283555,17.1423009 L9.198,13.3416952 L14,22.3923048 L8.562,13.7076952 L9.38918542,19.878462 L8,13.546317 L6.61081458,19.878462 L7.437,13.7096952 L2,22.3923048 L6.801,13.3416952 L1.87164446,17.1423009 L6.66085023,12.7731585 L0.482459034,14.7361611 L6.237,12.3666952 L-4,12 L6.239,11.6326952 L0.482459034,9.26383885 L6.66085023,11.2268415 L1.87164446,6.85769912 L6.8,10.6556952 L2,1.60769515 L7.437,10.2896952 L6.61081458,4.12153798 L8,10.453683 L9.38918542,4.12153798 L8.562,10.2916952 L14,1.60769515 Z" id="Combined-Shape" fill="url(#radialGradient-3)" style="mix-blend-mode: lighten;" opacity="0.807059152"></path>
    </g>
</svg>