<?xml version="1.0" encoding="UTF-8"?>
<svg width="32px" height="32px" viewBox="0 0 32 32" version="1.1" xmlns="http://www.w3.org/2000/svg" xmlns:xlink="http://www.w3.org/1999/xlink">
    <title>•• ASSET / Multiplatform /SVG /  ic_signup_screen_scan_tips_person</title>
    <g id="••-ASSET-/-Multiplatform-/-ic_signup_screen_scan_tips_person" stroke="none" stroke-width="1" fill="none" fill-rule="evenodd">
        <g id="•-ICON-/-Person.Face-/-W:Light" transform="translate(0.25, 0.25)" fill="#62768B" fill-rule="nonzero">
            <path d="M20.7356377,22.8709974 L20.5525091,22.8790343 C20.0671211,22.9221483 19.6088284,23.1373355 19.260593,23.4914092 L15.7484178,27.0597152 L12.2379687,23.4914038 L12.1076064,23.3705435 C11.6330547,22.9774725 11.0575394,22.8122163 10.4874576,22.8900368 C8.06596058,23.2205894 5.55491983,23.7727426 2.95373399,24.5459363 C1.89231741,24.8614387 0.943773943,25.4613188 0.199898318,26.2772122 L0,26.4964635 L0.000952939663,29.7220827 C0.000952905871,30.7038969 0.784427969,31.5 1.75089344,31.5 L29.7499419,31.5 C30.7164074,31.5 31.5,30.7038969 31.5,29.7218539 L31.5,26.4963622 L31.3001778,26.2771954 C30.5562954,25.4612987 29.6077427,24.8614206 28.5463165,24.5459264 C25.9446502,23.7725906 23.4331466,23.2203751 21.0112222,22.8898451 L20.7853777,22.8727182 L20.7356377,22.8709974 Z M20.6426376,24.4024299 L20.7242487,24.3955444 L20.8610141,24.4054674 C23.156466,24.720426 25.5942121,25.2564241 28.1251904,26.0087481 L28.388553,26.0958535 C28.9085604,26.2856326 29.3871405,26.5679851 29.8041338,26.9278533 L29.9999334,27.1074712 L29.9999334,29.7218257 C29.9999334,29.8621458 29.8880084,29.9758748 29.7499419,29.9758748 L1.75089344,29.9758748 L1.69357268,29.9691659 C1.58313255,29.9428387 1.50090193,29.8421041 1.50090193,29.7218539 L1.49990197,27.1064551 L1.69594204,26.9278675 C2.18243048,26.5080209 2.75274393,26.1936799 3.37486711,26.0087559 C5.90537308,25.2565716 8.34267218,24.7206334 10.6871699,24.4005918 C10.8467242,24.3788114 11.0078497,24.4250778 11.1323585,24.5278646 L11.2051898,24.5959912 L15.7486335,29.2163259 L20.3214381,24.5689039 C20.4092514,24.4796184 20.5219682,24.4218841 20.6426376,24.4024299 Z M6.79847502,5.06827268 C8.55468,0.309575393 16.6406642,-1.87327787 20.0492301,1.96673499 L20.1112695,2.04069204 L20.1980797,2.04431682 C24.6370808,2.26294759 25.6275695,5.82961618 24.6901554,13.5933583 L24.591787,14.3705703 L24.4926126,15.0931548 C24.4302458,15.5376536 24.0832659,15.7529717 23.7394889,15.7475878 C22.7018332,19.5233622 19.1075574,22.8632905 15.7500419,22.8632905 C12.397881,22.8632905 8.81004485,19.5338922 7.76314125,15.8072014 C7.64045008,15.8237762 7.55514133,15.7959328 7.41718001,15.7143062 L7.22119269,15.5903425 C7.06773635,15.3814698 7.06773635,15.3814698 7.03979206,15.2881882 L7.01687867,15.1960035 L7.01186251,15.1722702 L7.00571486,15.1166702 L6.91438587,14.8003142 C5.9211765,11.2434166 5.90647502,7.75282939 6.70298008,5.34163908 Z M18.4423262,6.22593984 L18.3092441,6.28244968 L16.4136018,7.11185082 L15.8604964,7.34199326 C14.6987336,7.81456443 13.6471349,8.16961376 12.6401665,8.40279366 C11.7054349,8.61924596 10.8427162,8.72111242 10.0532663,8.69005924 L10.2145798,8.69458827 C10.0655868,8.69698355 9.91926242,8.69511273 9.77561427,8.68886651 L9.918,8.691 L9.81168989,8.92886906 C9.63549363,9.33561746 9.47321338,9.80660519 9.32551825,10.3324021 L9.23865674,10.6543819 L9.15532777,10.9890632 C9.10883194,11.1834124 9.06477547,11.3803237 9.02299963,11.5795972 C9.00947526,11.9182519 9.00163681,12.2902971 8.99803757,12.7053018 L8.99606002,13.0406325 C8.57306369,16.9089602 12.4481945,21.3391653 15.7500419,21.3391653 C19.0520365,21.3391653 22.9277585,16.9088393 22.5001941,12.9594685 L22.4943988,12.199063 C22.4915099,12.0276305 22.4874811,11.8629675 22.4822047,11.7040639 C22.1465444,10.5702356 21.6442846,9.8078125 20.8581844,8.98387736 C20.8877057,9.01481944 20.5569172,8.6779844 20.215949,8.32517398 L19.6050459,7.68145628 C19.2458197,7.28479929 18.9152868,6.88210992 18.5961213,6.4434172 L18.4423262,6.22593984 Z M18.3173632,16.7760453 C18.5884655,17.0942456 18.5543768,17.5755121 18.2412239,17.850984 C18.1055317,17.9703488 17.8790785,18.1115806 17.5550466,18.2393198 C17.0651724,18.4324369 16.4648299,18.5449358 15.7504177,18.5449358 C14.63889,18.5449358 13.8087654,18.3340597 13.2596114,17.850984 C12.9464585,17.5755121 12.9123698,17.0942456 13.1834722,16.7760453 C13.4299289,16.4867723 13.8437658,16.4318482 14.1522484,16.6312189 L14.2413599,16.6986789 C14.4622527,16.8929922 14.9654162,17.0208106 15.7504177,17.0208106 C16.2806028,17.0208106 16.6969342,16.9427938 17.0125185,16.8183848 C17.1717617,16.7556084 17.250784,16.7063246 17.2594755,16.6986789 C17.5726284,16.4232069 18.0462608,16.457845 18.3173632,16.7760453 Z M18.7503157,10.1622472 C19.1299986,10.1622472 19.4437831,10.4489391 19.4934439,10.8209024 L19.5002903,10.9243098 L19.5002903,12.448435 C19.5002903,12.8693105 19.1645152,13.2104976 18.7503157,13.2104976 C18.3706329,13.2104976 18.0568483,12.9238057 18.0071876,12.5518424 L18.0003412,12.448435 L18.0003412,10.9243098 C18.0003412,10.5034342 18.3361163,10.1622472 18.7503157,10.1622472 Z M12.7505196,10.1622472 C13.1302025,10.1622472 13.443987,10.4489391 13.4936478,10.8209024 L13.5004941,10.9243098 L13.5004941,12.448435 C13.5004941,12.8693105 13.1647191,13.2104976 12.7505196,13.2104976 C12.3708368,13.2104976 12.0570522,12.9238057 12.0073915,12.5518424 L12.0005451,12.448435 L12.0005451,10.9243098 C12.0005451,10.5034342 12.3363201,10.1622472 12.7505196,10.1622472 Z M19.1503021,3.25287961 C16.7118006,-0.0508607712 9.62527012,1.74936348 8.20292106,5.60342876 C7.78054124,6.74792939 7.58281573,8.2498719 7.64503905,9.93082814 L7.67873336,9.68535326 L7.71013002,9.55162419 C7.97826366,8.74171884 8.27451293,8.04797399 8.60754073,7.48398142 L8.86374133,7.05009802 L9.35670098,7.1216559 C9.36483978,7.12283733 9.37299772,7.12399741 9.38117477,7.12513618 C9.45474529,7.11164252 9.5306048,7.11061104 9.60669249,7.1216559 C9.80289164,7.15013612 10.0092626,7.16621043 10.2254406,7.17020172 C10.8451389,7.15628715 11.5446419,7.05287602 12.3150435,6.86634891 C13.2032469,6.65130002 14.1496552,6.33644107 15.2008362,5.92368019 C15.2735169,5.88822316 17.9910857,4.73756876 18.6459085,4.58943706 C18.690995,4.57923356 18.7260833,4.57378812 18.7503157,4.57378812 L19.1546845,4.57378812 L19.4532251,5.0337742 C19.7273339,5.4485483 20.0040692,5.82076061 20.2996382,6.17760424 C20.4882956,6.38265897 20.7168768,6.6113353 21.0329943,6.91403362 L22.3318382,8.13922967 C22.8303547,8.6241672 23.1982865,9.04845722 23.5137823,9.53199586 C23.6089463,5.35798264 22.5596258,3.63316709 19.9280985,3.56013512 L19.7502818,3.55770465 C19.5142218,3.55770465 19.2919381,3.44477143 19.1503021,3.25287961 Z" id="Combined-Shape"></path>
        </g>
    </g>
</svg>