<?xml version="1.0" encoding="UTF-8"?>
<svg width="32px" height="32px" viewBox="0 0 32 32" version="1.1" xmlns="http://www.w3.org/2000/svg" xmlns:xlink="http://www.w3.org/1999/xlink">
    <title>•• ASSET / Multiplatform /SVG /  ic_signup_screen_scan_tips_text</title>
    <g id="••-ASSET-/-Multiplatform-/-ic_signup_screen_scan_tips_text" stroke="none" stroke-width="1" fill="none" fill-rule="evenodd">
        <g id="•-ICON-/-Text_Abc-/-W:Regular" transform="translate(0, 8.9727)" fill="#62768B" fill-rule="nonzero">
            <path d="M27.1606445,14.222168 C29.65625,14.222168 31.0942383,12.8769531 31.4560547,10.9194336 L31.4746094,10.8359375 L29.5449219,10.8359375 L29.5263672,10.8823242 C29.2016602,11.9677734 28.4223633,12.5429688 27.1606445,12.5429688 C25.5,12.5429688 24.4702148,11.1884766 24.4702148,8.96191406 L24.4702148,8.94335938 C24.4702148,6.77246094 25.4814453,5.43652344 27.1606445,5.43652344 C28.496582,5.43652344 29.3129883,6.17871094 29.5356445,7.17138672 L29.5449219,7.19921875 L31.4746094,7.18994141 L31.4746094,7.14355469 C31.1962891,5.18603516 29.684082,3.75732422 27.1513672,3.75732422 C24.2104492,3.75732422 22.4199219,5.75195313 22.4199219,8.94335938 L22.4199219,8.96191406 C22.4199219,12.2182617 24.2197266,14.222168 27.1606445,14.222168 Z M17.8525391,14.1943359 C20.3945313,14.1943359 22.0273438,12.1625977 22.0273438,8.99902344 L22.0273438,8.98046875 C22.0273438,5.7890625 20.4130859,3.77587891 17.8525391,3.77587891 C16.4702148,3.77587891 15.2919922,4.46240234 14.7539062,5.54785156 L14.6054687,5.54785156 L14.6054687,0 L12.5922852,0 L12.5922852,14.0273437 L14.6054687,14.0273437 L14.6054687,12.440918 L14.7539062,12.440918 C15.3383789,13.5449219 16.4423828,14.1943359 17.8525391,14.1943359 Z M17.2866211,12.4780273 C15.6074219,12.4780273 14.5683594,11.1513672 14.5683594,8.99902344 L14.5683594,8.98046875 C14.5683594,6.828125 15.6074219,5.50146484 17.2866211,5.50146484 C18.9658203,5.50146484 19.9770508,6.81884766 19.9770508,8.98046875 L19.9770508,8.99902344 C19.9770508,11.1606445 18.9658203,12.4780273 17.2866211,12.4780273 Z M0,14.0273438 L2.18017578,14.0273438 L3.39550781,10.4091797 L8.51660156,10.4091797 L9.72265625,14.0273438 L11.9121094,14.0273438 L7.07861328,0.640136719 L4.83349609,0.640136719 L0,14.0273438 Z M5.87255859,2.98730469 L6.03027344,2.98730469 L7.95996094,8.73925781 L3.95214844,8.73925781 L5.87255859,2.98730469 Z" id="Combined-Shape"></path>
        </g>
    </g>
</svg>