<?xml version="1.0" encoding="UTF-8"?>
<svg width="32px" height="32px" viewBox="0 0 32 32" version="1.1" xmlns="http://www.w3.org/2000/svg" xmlns:xlink="http://www.w3.org/1999/xlink">
    <title>•• ASSET / Multiplatform /SVG /  ic_signup_screen_scan_tips_focus</title>
    <g id="••-ASSET-/-Multiplatform-/-ic_signup_screen_scan_tips_focus" stroke="none" stroke-width="1" fill="none" fill-rule="evenodd">
        <path d="M16,2 C8.28026846,2 2,8.28026846 2,16 C2,23.7197315 8.28026846,30 16,30 C23.7197315,30 30,23.7197315 30,16 C30,8.28026846 23.7197315,2 16,2 Z M27.407651,20.6002685 C26.161745,17.4422819 24.1359732,14.672349 21.4496644,12.5169128 C21.4421477,12.5112752 21.4393289,12.5018792 21.4318121,12.4962416 C20.4583893,11.7210738 19.4097987,11.0539597 18.312349,10.4789262 C21.1151678,9.75261745 24.0974497,9.70657718 26.9312752,10.3661745 C27.8060403,12.0574497 28.3087248,13.9695302 28.3087248,16 C28.3087248,17.626443 27.9836242,19.1777181 27.407651,20.6002685 Z M20.1295302,18.370604 C18.872349,19.345906 17.4920805,20.1473826 16.0197315,20.7571812 C14.5408054,20.1539597 13.1511409,19.3571812 11.8826846,18.384698 C11.6656376,16.8061745 11.6618792,15.2107383 11.8714094,13.629396 C13.1285906,12.654094 14.5088591,11.8526174 15.9812081,11.2428188 C17.4601342,11.8460403 18.8497987,12.6428188 20.118255,13.615302 C20.335302,15.1938255 20.3390604,16.7902013 20.1295302,18.370604 Z M25.6750336,8.41651007 C22.314094,7.93073826 18.8375839,8.30563758 15.6918121,9.54120805 C15.6842953,9.54402685 15.6767785,9.54308725 15.6692617,9.54590604 C14.5154362,9.99879195 13.4189262,10.5700671 12.3778523,11.2287248 C13.1511409,8.43436242 14.5981208,5.83261745 16.5787919,3.72134228 C20.267651,3.89328859 23.5318121,5.68791946 25.6750336,8.41651007 Z M14.2645638,3.82845638 C12.1720805,6.48469799 10.7608054,9.68026846 10.2524832,13.0289933 C10.2515436,13.0365101 10.2468456,13.0421477 10.245906,13.0487248 C10.0589262,14.2758389 10.0053691,15.512349 10.0551678,16.7460403 C8.00872483,14.6732886 6.50724832,12.1551678 5.66255034,9.34389262 C7.55677852,6.4114094 10.6602685,4.34053691 14.2645638,3.82845638 Z M4.59234899,11.3997315 C5.83825503,14.5577181 7.86402685,17.327651 10.5503356,19.4830872 C10.5578523,19.4887248 10.5606711,19.4981208 10.5681879,19.5037584 C11.5416107,20.2789262 12.5902013,20.9451007 13.687651,21.5210738 C10.8838926,22.2473826 7.90161074,22.2943624 5.06872483,21.6338255 C4.19395973,19.9425503 3.69127517,18.0304698 3.69127517,16 C3.69127517,14.373557 4.01637584,12.8222819 4.59234899,11.3997315 Z M6.32966443,23.5900671 C7.26550336,23.7253691 8.20979866,23.8005369 9.15409396,23.8005369 C11.5989262,23.8005369 14.04,23.3495302 16.3081879,22.4597315 C16.3157047,22.4569128 16.3241611,22.4578523 16.3316779,22.4550336 C17.4855034,22.0021477 18.5820134,21.4308725 19.6230872,20.7722148 C18.8497987,23.5665772 17.4028188,26.1683221 15.4221477,28.2795973 C11.7361074,28.1067114 8.47288591,26.3148993 6.32966443,23.5900671 Z M17.7354362,28.1715436 C19.8279195,25.515302 21.2391946,22.3197315 21.7475168,18.9710067 C21.7484564,18.9634899 21.7531544,18.9578523 21.754094,18.9512752 C21.9410738,17.7241611 21.9946309,16.487651 21.9448322,15.2539597 C23.9912752,17.3267114 25.4927517,19.8448322 26.3374497,22.6561074 C24.4432215,25.5885906 21.3397315,27.6594631 17.7354362,28.1715436 Z" id="Shape" fill="#62768B" fill-rule="nonzero"></path>
    </g>
</svg>